<svg width="253" height="84" viewBox="0 0 253 84" fill="none" xmlns="http://www.w3.org/2000/svg">
<path d="M20.6081 35.7L24.2081 39.24C21.4481 41.48 18.2881 42.6 14.7281 42.6C10.2881 42.6 6.72813 41.18 4.04813 38.34C1.36813 35.46 0.0281251 31.88 0.0281251 27.6C0.0281251 23.4 1.42813 19.86 4.22813 16.98C7.06813 14.06 10.5681 12.6 14.7281 12.6C18.2881 12.6 21.4481 13.72 24.2081 15.96L20.6681 19.56C18.9881 18.28 17.0081 17.64 14.7281 17.64C11.9681 17.64 9.76813 18.56 8.12813 20.4C6.52813 22.2 5.72813 24.6 5.72813 27.6C5.72813 30.6 6.52813 33.02 8.12813 34.86C9.76813 36.66 11.9681 37.56 14.7281 37.56C17.0481 37.56 19.0081 36.94 20.6081 35.7ZM28.3875 42V25.62C28.3875 21.02 29.2475 17.84 30.9675 16.08C31.8075 15.2 32.8275 14.54 34.0275 14.1C35.2275 13.66 36.2675 13.4 37.1475 13.32C38.0675 13.24 39.3075 13.2 40.8675 13.2H46.1475V18.24H39.7875C38.9875 18.24 38.3675 18.26 37.9275 18.3C37.4875 18.34 36.9675 18.48 36.3675 18.72C35.7675 18.96 35.2475 19.34 34.8075 19.86C34.0475 20.82 33.6675 22.74 33.6675 25.62V42H28.3875ZM47.0297 18.24L57.7697 7.5V13.2H65.8697V18.24H57.7697V30.6C57.7697 32 57.9897 33.16 58.4297 34.08C58.9097 35 59.5897 35.66 60.4697 36.06C61.3497 36.42 62.1697 36.66 62.9297 36.78C63.7297 36.9 64.7097 36.96 65.8697 36.96V42C61.2697 42 57.8697 41.12 55.6697 39.36C53.4697 37.6 52.3697 34.68 52.3697 30.6V18.24H47.0297ZM81.9122 42.66C78.4722 39.42 75.9322 35.84 74.2922 31.92C72.6922 28 71.0922 21.76 69.4922 13.2H75.0122C76.5722 22.84 78.8722 30.14 81.9122 35.1C84.9522 30.14 87.2522 22.84 88.8122 13.2H94.3322C92.7322 21.76 91.1122 28 89.4722 31.92C87.8722 35.84 85.3522 39.42 81.9122 42.66ZM113.524 12.6C120.324 12.88 123.724 15.7 123.724 21.06C123.724 27.74 119.344 31.08 110.584 31.08H108.124V26.46H111.004C113.684 26.46 115.544 26.06 116.584 25.26C117.624 24.42 118.144 23.04 118.144 21.12C118.144 19.88 117.684 18.96 116.764 18.36C115.844 17.72 114.664 17.4 113.224 17.4C110.384 17.4 108.144 18.4 106.504 20.4C104.904 22.4 104.104 24.8 104.104 27.6C104.104 30.56 104.964 32.96 106.684 34.8C108.444 36.64 110.724 37.56 113.524 37.56C116.044 37.56 118.104 36.94 119.704 35.7L123.304 39.24C120.544 41.48 117.284 42.6 113.524 42.6C108.964 42.6 105.324 41.26 102.604 38.58C99.8842 35.9 98.5242 32.44 98.5242 28.2C98.5242 23.48 99.8642 19.66 102.544 16.74C105.224 13.82 108.884 12.44 113.524 12.6ZM149.397 35.7L152.997 39.24C150.237 41.48 147.077 42.6 143.517 42.6C139.077 42.6 135.517 41.18 132.837 38.34C130.157 35.46 128.817 31.88 128.817 27.6C128.817 23.4 130.217 19.86 133.017 16.98C135.857 14.06 139.357 12.6 143.517 12.6C147.077 12.6 150.237 13.72 152.997 15.96L149.457 19.56C147.777 18.28 145.797 17.64 143.517 17.64C140.757 17.64 138.557 18.56 136.917 20.4C135.317 22.2 134.517 24.6 134.517 27.6C134.517 30.6 135.317 33.02 136.917 34.86C138.557 36.66 140.757 37.56 143.517 37.56C145.837 37.56 147.797 36.94 149.397 35.7ZM161.377 16.98C164.177 14.06 167.677 12.6 171.877 12.6C173.917 12.6 175.817 13 177.577 13.8C179.377 14.56 180.937 15.62 182.257 16.98C183.617 18.34 184.677 19.94 185.437 21.78C186.197 23.58 186.577 25.52 186.577 27.6C186.577 29.68 186.197 31.64 185.437 33.48C184.717 35.28 183.697 36.86 182.377 38.22C181.057 39.58 179.497 40.66 177.697 41.46C175.897 42.22 173.957 42.6 171.877 42.6C169.757 42.6 167.797 42.22 165.997 41.46C164.237 40.66 162.697 39.58 161.377 38.22C160.057 36.86 159.017 35.28 158.257 33.48C157.537 31.64 157.177 29.68 157.177 27.6C157.177 23.36 158.577 19.82 161.377 16.98ZM171.877 17.64C169.077 17.64 166.817 18.56 165.097 20.4C163.417 22.24 162.577 24.64 162.577 27.6C162.577 30.56 163.417 32.96 165.097 34.8C166.817 36.64 169.077 37.56 171.877 37.56C174.717 37.56 176.977 36.64 178.657 34.8C180.337 32.92 181.177 30.52 181.177 27.6C181.177 24.68 180.337 22.3 178.657 20.46C176.977 18.58 174.717 17.64 171.877 17.64ZM215.381 -2.86102e-06H220.781V42H206.681C202.321 42 198.781 40.62 196.061 37.86C193.341 35.06 191.981 31.54 191.981 27.3C191.981 23.14 193.381 19.66 196.181 16.86C199.021 14.02 202.381 12.6 206.261 12.6C208.741 12.6 211.061 13.2 213.221 14.4V19.8C211.221 18.36 208.901 17.64 206.261 17.64C203.861 17.64 201.821 18.54 200.141 20.34C198.501 22.1 197.681 24.42 197.681 27.3C197.681 30.22 198.461 32.56 200.021 34.32C201.621 36.08 203.841 36.96 206.681 36.96H215.381V-2.86102e-06ZM242.079 12.6C248.879 12.88 252.279 15.7 252.279 21.06C252.279 27.74 247.899 31.08 239.139 31.08H236.679V26.46H239.559C242.239 26.46 244.099 26.06 245.139 25.26C246.179 24.42 246.699 23.04 246.699 21.12C246.699 19.88 246.239 18.96 245.319 18.36C244.399 17.72 243.219 17.4 241.779 17.4C238.939 17.4 236.699 18.4 235.059 20.4C233.459 22.4 232.659 24.8 232.659 27.6C232.659 30.56 233.519 32.96 235.239 34.8C236.999 36.64 239.279 37.56 242.079 37.56C244.599 37.56 246.659 36.94 248.259 35.7L251.859 39.24C249.099 41.48 245.839 42.6 242.079 42.6C237.519 42.6 233.879 41.26 231.159 38.58C228.439 35.9 227.079 32.44 227.079 28.2C227.079 23.48 228.419 19.66 231.099 16.74C233.779 13.82 237.439 12.44 242.079 12.6ZM21.2766 56H23.9766V77H16.9266C14.7466 77 12.9766 76.31 11.6166 74.93C10.2566 73.53 9.57656 71.77 9.57656 69.65C9.57656 67.57 10.2766 65.83 11.6766 64.43C13.0966 63.01 14.7766 62.3 16.7166 62.3C17.9566 62.3 19.1166 62.6 20.1966 63.2V65.9C19.1966 65.18 18.0366 64.82 16.7166 64.82C15.5166 64.82 14.4966 65.27 13.6566 66.17C12.8366 67.05 12.4266 68.21 12.4266 69.65C12.4266 71.11 12.8166 72.28 13.5966 73.16C14.3966 74.04 15.5066 74.48 16.9266 74.48H21.2766V56ZM34.6254 62.3C38.0254 62.44 39.7254 63.85 39.7254 66.53C39.7254 69.87 37.5354 71.54 33.1554 71.54H31.9254V69.23H33.3654C34.7054 69.23 35.6354 69.03 36.1554 68.63C36.6754 68.21 36.9354 67.52 36.9354 66.56C36.9354 65.94 36.7054 65.48 36.2454 65.18C35.7854 64.86 35.1954 64.7 34.4754 64.7C33.0554 64.7 31.9354 65.2 31.1154 66.2C30.3154 67.2 29.9154 68.4 29.9154 69.8C29.9154 71.28 30.3454 72.48 31.2054 73.4C32.0854 74.32 33.2254 74.78 34.6254 74.78C35.8854 74.78 36.9154 74.47 37.7154 73.85L39.5154 75.62C38.1354 76.74 36.5054 77.3 34.6254 77.3C32.3454 77.3 30.5254 76.63 29.1654 75.29C27.8054 73.95 27.1254 72.22 27.1254 70.1C27.1254 67.74 27.7954 65.83 29.1354 64.37C30.4754 62.91 32.3054 62.22 34.6254 62.3ZM47.8819 77.33C46.1619 75.71 44.8919 73.92 44.0719 71.96C43.2719 70 42.4719 66.88 41.6719 62.6H44.4319C45.2119 67.42 46.3619 71.07 47.8819 73.55C49.4019 71.07 50.5519 67.42 51.3319 62.6H54.0919C53.2919 66.88 52.4819 70 51.6619 71.96C50.8619 73.92 49.6019 75.71 47.8819 77.33ZM63.6879 62.3C67.0879 62.44 68.7879 63.85 68.7879 66.53C68.7879 69.87 66.5979 71.54 62.2179 71.54H60.9879V69.23H62.4279C63.7679 69.23 64.6979 69.03 65.2179 68.63C65.7379 68.21 65.9979 67.52 65.9979 66.56C65.9979 65.94 65.7679 65.48 65.3079 65.18C64.8479 64.86 64.2579 64.7 63.5379 64.7C62.1179 64.7 60.9979 65.2 60.1779 66.2C59.3779 67.2 58.9779 68.4 58.9779 69.8C58.9779 71.28 59.4079 72.48 60.2679 73.4C61.1479 74.32 62.2879 74.78 63.6879 74.78C64.9479 74.78 65.9779 74.47 66.7779 73.85L68.5779 75.62C67.1979 76.74 65.5679 77.3 63.6879 77.3C61.4079 77.3 59.5879 76.63 58.2279 75.29C56.8679 73.95 56.1879 72.22 56.1879 70.1C56.1879 67.74 56.8579 65.83 58.1979 64.37C59.5379 62.91 61.3679 62.22 63.6879 62.3ZM71.7844 71.3V56H74.4844V71.3C74.4844 72.02 74.5644 72.61 74.7244 73.07C74.9044 73.51 75.1744 73.83 75.5344 74.03C75.8944 74.21 76.2444 74.33 76.5844 74.39C76.9244 74.45 77.3744 74.48 77.9344 74.48V77C75.6944 77 74.1044 76.57 73.1644 75.71C72.2444 74.85 71.7844 73.38 71.7844 71.3ZM81.5203 64.49C82.9203 63.03 84.6703 62.3 86.7703 62.3C87.7903 62.3 88.7403 62.5 89.6203 62.9C90.5203 63.28 91.3003 63.81 91.9603 64.49C92.6403 65.17 93.1703 65.97 93.5503 66.89C93.9303 67.79 94.1203 68.76 94.1203 69.8C94.1203 70.84 93.9303 71.82 93.5503 72.74C93.1903 73.64 92.6803 74.43 92.0203 75.11C91.3603 75.79 90.5803 76.33 89.6803 76.73C88.7803 77.11 87.8103 77.3 86.7703 77.3C85.7103 77.3 84.7303 77.11 83.8303 76.73C82.9503 76.33 82.1803 75.79 81.5203 75.11C80.8603 74.43 80.3403 73.64 79.9603 72.74C79.6003 71.82 79.4203 70.84 79.4203 69.8C79.4203 67.68 80.1203 65.91 81.5203 64.49ZM86.7703 64.82C85.3703 64.82 84.2403 65.28 83.3803 66.2C82.5403 67.12 82.1203 68.32 82.1203 69.8C82.1203 71.28 82.5403 72.48 83.3803 73.4C84.2403 74.32 85.3703 74.78 86.7703 74.78C88.1903 74.78 89.3203 74.32 90.1603 73.4C91.0003 72.46 91.4203 71.26 91.4203 69.8C91.4203 68.34 91.0003 67.15 90.1603 66.23C89.3203 65.29 88.1903 64.82 86.7703 64.82ZM97.2727 83.84V69.8C97.2727 68.76 97.4627 67.78 97.8427 66.86C98.2227 65.94 98.7427 65.15 99.4027 64.49C100.063 63.81 100.843 63.28 101.743 62.9C102.643 62.5 103.603 62.3 104.623 62.3C105.643 62.3 106.593 62.5 107.473 62.9C108.373 63.28 109.153 63.81 109.813 64.49C110.493 65.17 111.023 65.97 111.403 66.89C111.783 67.79 111.973 68.76 111.973 69.8C111.973 70.84 111.783 71.82 111.403 72.74C111.043 73.64 110.533 74.43 109.873 75.11C109.213 75.79 108.433 76.33 107.533 76.73C106.633 77.11 105.663 77.3 104.623 77.3C103.343 77.3 102.153 77 101.053 76.4V73.7C102.033 74.42 103.193 74.78 104.533 74.78C105.253 74.78 105.903 74.66 106.483 74.42C107.083 74.16 107.583 73.81 107.983 73.37C108.403 72.93 108.723 72.41 108.943 71.81C109.163 71.19 109.273 70.52 109.273 69.8C109.273 69.08 109.163 68.42 108.943 67.82C108.723 67.2 108.413 66.67 108.013 66.23C107.613 65.79 107.123 65.45 106.543 65.21C105.983 64.95 105.343 64.82 104.623 64.82C103.923 64.82 103.283 64.94 102.703 65.18C102.143 65.42 101.653 65.76 101.233 66.2C100.833 66.64 100.523 67.17 100.303 67.79C100.083 68.39 99.9727 69.06 99.9727 69.8V83.84H97.2727ZM122.164 62.3C125.564 62.44 127.264 63.85 127.264 66.53C127.264 69.87 125.074 71.54 120.694 71.54H119.464V69.23H120.904C122.244 69.23 123.174 69.03 123.694 68.63C124.214 68.21 124.474 67.52 124.474 66.56C124.474 65.94 124.244 65.48 123.784 65.18C123.324 64.86 122.734 64.7 122.014 64.7C120.594 64.7 119.474 65.2 118.654 66.2C117.854 67.2 117.454 68.4 117.454 69.8C117.454 71.28 117.884 72.48 118.744 73.4C119.624 74.32 120.764 74.78 122.164 74.78C123.424 74.78 124.454 74.47 125.254 73.85L127.054 75.62C125.674 76.74 124.044 77.3 122.164 77.3C119.884 77.3 118.064 76.63 116.704 75.29C115.344 73.95 114.664 72.22 114.664 70.1C114.664 67.74 115.334 65.83 116.674 64.37C118.014 62.91 119.844 62.22 122.164 62.3ZM129.811 77V68.81C129.811 66.51 130.241 64.92 131.101 64.04C131.521 63.6 132.031 63.27 132.631 63.05C133.231 62.83 133.751 62.7 134.191 62.66C134.651 62.62 135.271 62.6 136.051 62.6H138.691V65.12H135.511C135.111 65.12 134.801 65.13 134.581 65.15C134.361 65.17 134.101 65.24 133.801 65.36C133.501 65.48 133.241 65.67 133.021 65.93C132.641 66.41 132.451 67.37 132.451 68.81V77H129.811ZM150.622 62.6V65.12H145.312C144.732 65.12 144.232 65.23 143.812 65.45C143.392 65.67 143.182 65.98 143.182 66.38C143.182 66.62 143.232 66.84 143.332 67.04C143.432 67.22 143.542 67.37 143.662 67.49C143.802 67.61 144.002 67.74 144.262 67.88C144.542 68 144.752 68.09 144.892 68.15C145.052 68.19 145.692 68.39 146.812 68.75C147.932 69.11 148.762 69.41 149.302 69.65C149.842 69.89 150.252 70.22 150.532 70.64C150.832 71.04 151.022 71.44 151.102 71.84C151.182 72.22 151.222 72.6 151.222 72.98C151.222 75.66 149.382 77 145.702 77H140.512V74.48H145.702C147.582 74.48 148.522 73.98 148.522 72.98C148.522 72.5 148.242 72.1 147.682 71.78C147.142 71.46 146.472 71.19 145.672 70.97C144.892 70.75 144.102 70.5 143.302 70.22C142.522 69.92 141.852 69.45 141.292 68.81C140.752 68.15 140.482 67.34 140.482 66.38C140.482 65.16 140.952 64.23 141.892 63.59C142.832 62.93 143.972 62.6 145.312 62.6H150.622ZM171.068 73.85L172.868 75.62C171.488 76.74 169.908 77.3 168.128 77.3C165.908 77.3 164.128 76.59 162.788 75.17C161.448 73.73 160.778 71.94 160.778 69.8C160.778 67.7 161.478 65.93 162.878 64.49C164.298 63.03 166.048 62.3 168.128 62.3C169.908 62.3 171.488 62.86 172.868 63.98L171.098 65.78C170.258 65.14 169.268 64.82 168.128 64.82C166.748 64.82 165.648 65.28 164.828 66.2C164.028 67.1 163.628 68.3 163.628 69.8C163.628 71.3 164.028 72.51 164.828 73.43C165.648 74.33 166.748 74.78 168.128 74.78C169.288 74.78 170.268 74.47 171.068 73.85ZM178.047 56V62.6H180.597C182.817 62.6 184.407 62.93 185.367 63.59C186.227 64.17 186.767 64.87 186.987 65.69C187.227 66.49 187.347 67.55 187.347 68.87V77H184.707V68.9C184.707 68.54 184.697 68.24 184.677 68C184.657 67.74 184.587 67.42 184.467 67.04C184.347 66.64 184.177 66.32 183.957 66.08C183.737 65.82 183.417 65.6 182.997 65.42C182.577 65.22 182.067 65.12 181.467 65.12H178.047V77H175.407V56H178.047ZM192.585 64.49C193.985 63.03 195.735 62.3 197.835 62.3C198.855 62.3 199.805 62.5 200.685 62.9C201.585 63.28 202.365 63.81 203.025 64.49C203.705 65.17 204.235 65.97 204.615 66.89C204.995 67.79 205.185 68.76 205.185 69.8C205.185 70.84 204.995 71.82 204.615 72.74C204.255 73.64 203.745 74.43 203.085 75.11C202.425 75.79 201.645 76.33 200.745 76.73C199.845 77.11 198.875 77.3 197.835 77.3C196.775 77.3 195.795 77.11 194.895 76.73C194.015 76.33 193.245 75.79 192.585 75.11C191.925 74.43 191.405 73.64 191.025 72.74C190.665 71.82 190.485 70.84 190.485 69.8C190.485 67.68 191.185 65.91 192.585 64.49ZM197.835 64.82C196.435 64.82 195.305 65.28 194.445 66.2C193.605 67.12 193.185 68.32 193.185 69.8C193.185 71.28 193.605 72.48 194.445 73.4C195.305 74.32 196.435 74.78 197.835 74.78C199.255 74.78 200.385 74.32 201.225 73.4C202.065 72.46 202.485 71.26 202.485 69.8C202.485 68.34 202.065 67.15 201.225 66.23C200.385 65.29 199.255 64.82 197.835 64.82ZM212.237 77H209.597V65.12H207.137L208.337 62.6H212.237V77ZM209.477 59.6C209.217 59.26 209.087 58.89 209.087 58.49C209.087 58.09 209.217 57.73 209.477 57.41C209.737 57.07 210.137 56.9 210.677 56.9C211.217 56.9 211.617 57.07 211.877 57.41C212.137 57.73 212.267 58.09 212.267 58.49C212.267 58.89 212.137 59.26 211.877 59.6C211.617 59.92 211.217 60.08 210.677 60.08C210.137 60.08 209.737 59.92 209.477 59.6ZM226.087 73.85L227.887 75.62C226.507 76.74 224.927 77.3 223.147 77.3C220.927 77.3 219.147 76.59 217.807 75.17C216.467 73.73 215.797 71.94 215.797 69.8C215.797 67.7 216.497 65.93 217.897 64.49C219.317 63.03 221.067 62.3 223.147 62.3C224.927 62.3 226.507 62.86 227.887 63.98L226.117 65.78C225.277 65.14 224.287 64.82 223.147 64.82C221.767 64.82 220.667 65.28 219.847 66.2C219.047 67.1 218.647 68.3 218.647 69.8C218.647 71.3 219.047 72.51 219.847 73.43C220.667 74.33 221.767 74.78 223.147 74.78C224.307 74.78 225.287 74.47 226.087 73.85ZM237.477 62.3C240.877 62.44 242.577 63.85 242.577 66.53C242.577 69.87 240.387 71.54 236.007 71.54H234.777V69.23H236.217C237.557 69.23 238.487 69.03 239.007 68.63C239.527 68.21 239.787 67.52 239.787 66.56C239.787 65.94 239.557 65.48 239.097 65.18C238.637 64.86 238.047 64.7 237.327 64.7C235.907 64.7 234.787 65.2 233.967 66.2C233.167 67.2 232.767 68.4 232.767 69.8C232.767 71.28 233.197 72.48 234.057 73.4C234.937 74.32 236.077 74.78 237.477 74.78C238.737 74.78 239.767 74.47 240.567 73.85L242.367 75.62C240.987 76.74 239.357 77.3 237.477 77.3C235.197 77.3 233.377 76.63 232.017 75.29C230.657 73.95 229.977 72.22 229.977 70.1C229.977 67.74 230.647 65.83 231.987 64.37C233.327 62.91 235.157 62.22 237.477 62.3Z" fill="white"/>
</svg>
