<svg width="122" height="100" viewBox="0 0 122 100" fill="none" xmlns="http://www.w3.org/2000/svg">
<rect x="1" y="1" width="120" height="98" rx="9" stroke="#202020" stroke-width="2"/>
<line y1="26.7246" x2="122" y2="26.7246" stroke="#202020" stroke-width="2"/>
<path d="M17.3458 14.6211C17.3458 17.367 15.0781 19.6211 12.2458 19.6211C9.41345 19.6211 7.14575 17.367 7.14575 14.6211C7.14575 11.8752 9.41345 9.62109 12.2458 9.62109C15.0781 9.62109 17.3458 11.8752 17.3458 14.6211Z" stroke="#202020" stroke-width="2"/>
<path d="M32.596 14.6211C32.596 17.367 30.3283 19.6211 27.496 19.6211C24.6637 19.6211 22.396 17.367 22.396 14.6211C22.396 11.8752 24.6637 9.62109 27.496 9.62109C30.3283 9.62109 32.596 11.8752 32.596 14.6211Z" stroke="#202020" stroke-width="2"/>
<path d="M47.8458 14.6211C47.8458 17.367 45.5781 19.6211 42.7458 19.6211C39.9135 19.6211 37.6458 17.367 37.6458 14.6211C37.6458 11.8752 39.9135 9.62109 42.7458 9.62109C45.5781 9.62109 47.8458 11.8752 47.8458 14.6211Z" stroke="#202020" stroke-width="2"/>
<rect x="13" y="39" width="34" height="46" rx="1" stroke="#202020" stroke-width="2"/>
<line x1="68" y1="45" x2="104" y2="45" stroke="#202020" stroke-width="2"/>
<line x1="68" y1="57" x2="104" y2="57" stroke="#202020" stroke-width="2"/>
<line x1="68" y1="69" x2="104" y2="69" stroke="#202020" stroke-width="2"/>
<line x1="68" y1="81" x2="104" y2="81" stroke="#202020" stroke-width="2"/>
</svg>
