<svg width="211" height="71" viewBox="0 0 211 71" fill="none" xmlns="http://www.w3.org/2000/svg">
<g id="crtvecode developers choice" filter="url(#filter0_i)">
<path d="M17.6734 29.75L20.6734 32.7C18.3734 34.5667 15.7401 35.5 12.7734 35.5C9.07344 35.5 6.10677 34.3167 3.87344 31.95C1.6401 29.55 0.523438 26.5667 0.523438 23C0.523438 19.5 1.6901 16.55 4.02344 14.15C6.3901 11.7167 9.30677 10.5 12.7734 10.5C15.7401 10.5 18.3734 11.4333 20.6734 13.3L17.7234 16.3C16.3234 15.2333 14.6734 14.7 12.7734 14.7C10.4734 14.7 8.6401 15.4667 7.27344 17C5.9401 18.5 5.27344 20.5 5.27344 23C5.27344 25.5 5.9401 27.5167 7.27344 29.05C8.6401 30.55 10.4734 31.3 12.7734 31.3C14.7068 31.3 16.3401 30.7833 17.6734 29.75ZM24.1563 35V21.35C24.1563 17.5167 24.8729 14.8667 26.3063 13.4C27.0063 12.6667 27.8563 12.1167 28.8563 11.75C29.8563 11.3833 30.7229 11.1667 31.4563 11.1C32.2229 11.0333 33.2563 11 34.5563 11H38.9563V15.2H33.6563C32.9896 15.2 32.4729 15.2167 32.1063 15.25C31.7396 15.2833 31.3063 15.4 30.8063 15.6C30.3063 15.8 29.8729 16.1167 29.5063 16.55C28.8729 17.35 28.5563 18.95 28.5563 21.35V35H24.1563ZM39.6914 15.2L48.6414 6.25V11H55.3914V15.2H48.6414V25.5C48.6414 26.6667 48.8247 27.6333 49.1914 28.4C49.5914 29.1667 50.1581 29.7167 50.8914 30.05C51.6247 30.35 52.3081 30.55 52.9414 30.65C53.6081 30.75 54.4247 30.8 55.3914 30.8V35C51.5581 35 48.7247 34.2667 46.8914 32.8C45.0581 31.3333 44.1414 28.9 44.1414 25.5V15.2H39.6914ZM68.7602 35.55C65.8935 32.85 63.7768 29.8667 62.4102 26.6C61.0768 23.3333 59.7435 18.1333 58.4102 11H63.0102C64.3102 19.0333 66.2268 25.1167 68.7602 29.25C71.2935 25.1167 73.2102 19.0333 74.5102 11H79.1102C77.7768 18.1333 76.4268 23.3333 75.0602 26.6C73.7268 29.8667 71.6268 32.85 68.7602 35.55ZM95.1035 10.5C100.77 10.7333 103.604 13.0833 103.604 17.55C103.604 23.1167 99.9535 25.9 92.6535 25.9H90.6035V22.05H93.0035C95.2369 22.05 96.7868 21.7167 97.6535 21.05C98.5202 20.35 98.9535 19.2 98.9535 17.6C98.9535 16.5667 98.5702 15.8 97.8035 15.3C97.0368 14.7667 96.0535 14.5 94.8535 14.5C92.4868 14.5 90.6202 15.3333 89.2535 17C87.9202 18.6667 87.2535 20.6667 87.2535 23C87.2535 25.4667 87.9702 27.4667 89.4035 29C90.8702 30.5333 92.7702 31.3 95.1035 31.3C97.2035 31.3 98.9202 30.7833 100.254 29.75L103.254 32.7C100.954 34.5667 98.2369 35.5 95.1035 35.5C91.3035 35.5 88.2702 34.3833 86.0035 32.15C83.7368 29.9167 82.6035 27.0333 82.6035 23.5C82.6035 19.5667 83.7202 16.3833 85.9535 13.95C88.1868 11.5167 91.2368 10.3667 95.1035 10.5ZM124.998 29.75L127.998 32.7C125.698 34.5667 123.064 35.5 120.098 35.5C116.398 35.5 113.431 34.3167 111.198 31.95C108.964 29.55 107.848 26.5667 107.848 23C107.848 19.5 109.014 16.55 111.348 14.15C113.714 11.7167 116.631 10.5 120.098 10.5C123.064 10.5 125.698 11.4333 127.998 13.3L125.048 16.3C123.648 15.2333 121.998 14.7 120.098 14.7C117.798 14.7 115.964 15.4667 114.598 17C113.264 18.5 112.598 20.5 112.598 23C112.598 25.5 113.264 27.5167 114.598 29.05C115.964 30.55 117.798 31.3 120.098 31.3C122.031 31.3 123.664 30.7833 124.998 29.75ZM134.98 14.15C137.314 11.7167 140.23 10.5 143.73 10.5C145.43 10.5 147.014 10.8333 148.48 11.5C149.98 12.1333 151.28 13.0167 152.38 14.15C153.514 15.2833 154.397 16.6167 155.03 18.15C155.664 19.65 155.98 21.2667 155.98 23C155.98 24.7333 155.664 26.3667 155.03 27.9C154.43 29.4 153.58 30.7167 152.48 31.85C151.38 32.9833 150.08 33.8833 148.58 34.55C147.08 35.1833 145.464 35.5 143.73 35.5C141.964 35.5 140.33 35.1833 138.83 34.55C137.364 33.8833 136.08 32.9833 134.98 31.85C133.88 30.7167 133.014 29.4 132.38 27.9C131.78 26.3667 131.48 24.7333 131.48 23C131.48 19.4667 132.647 16.5167 134.98 14.15ZM143.73 14.7C141.397 14.7 139.514 15.4667 138.08 17C136.68 18.5333 135.98 20.5333 135.98 23C135.98 25.4667 136.68 27.4667 138.08 29C139.514 30.5333 141.397 31.3 143.73 31.3C146.097 31.3 147.98 30.5333 149.38 29C150.78 27.4333 151.48 25.4333 151.48 23C151.48 20.5667 150.78 18.5833 149.38 17.05C147.98 15.4833 146.097 14.7 143.73 14.7ZM179.984 -2.38419e-06H184.484V35H172.734C169.101 35 166.151 33.85 163.884 31.55C161.618 29.2167 160.484 26.2833 160.484 22.75C160.484 19.2833 161.651 16.3833 163.984 14.05C166.351 11.6833 169.151 10.5 172.384 10.5C174.451 10.5 176.384 11 178.184 12V16.5C176.518 15.3 174.584 14.7 172.384 14.7C170.384 14.7 168.684 15.45 167.284 16.95C165.918 18.4167 165.234 20.35 165.234 22.75C165.234 25.1833 165.884 27.1333 167.184 28.6C168.518 30.0667 170.368 30.8 172.734 30.8H179.984V-2.38419e-06ZM202.232 10.5C207.899 10.7333 210.732 13.0833 210.732 17.55C210.732 23.1167 207.082 25.9 199.782 25.9H197.732V22.05H200.132C202.366 22.05 203.916 21.7167 204.782 21.05C205.649 20.35 206.082 19.2 206.082 17.6C206.082 16.5667 205.699 15.8 204.932 15.3C204.166 14.7667 203.182 14.5 201.982 14.5C199.616 14.5 197.749 15.3333 196.382 17C195.049 18.6667 194.382 20.6667 194.382 23C194.382 25.4667 195.099 27.4667 196.532 29C197.999 30.5333 199.899 31.3 202.232 31.3C204.332 31.3 206.049 30.7833 207.382 29.75L210.382 32.7C208.082 34.5667 205.366 35.5 202.232 35.5C198.432 35.5 195.399 34.3833 193.132 32.15C190.866 29.9167 189.732 27.0333 189.732 23.5C189.732 19.5667 190.849 16.3833 193.082 13.95C195.316 11.5167 198.366 10.3667 202.232 10.5Z" fill="#2292A4"/>
<path d="M18.2305 47.5H20.4805V65H14.6055C12.7888 65 11.3138 64.425 10.1805 63.275C9.04714 62.1083 8.48047 60.6417 8.48047 58.875C8.48047 57.1417 9.0638 55.6917 10.2305 54.525C11.4138 53.3417 12.8138 52.75 14.4305 52.75C15.4638 52.75 16.4305 53 17.3305 53.5V55.75C16.4971 55.15 15.5305 54.85 14.4305 54.85C13.4305 54.85 12.5805 55.225 11.8805 55.975C11.1971 56.7083 10.8555 57.675 10.8555 58.875C10.8555 60.0917 11.1805 61.0667 11.8305 61.8C12.4971 62.5333 13.4221 62.9 14.6055 62.9H18.2305V47.5ZM29.3545 52.75C32.1878 52.8667 33.6045 54.0417 33.6045 56.275C33.6045 59.0583 31.7795 60.45 28.1295 60.45H27.1045V58.525H28.3045C29.4212 58.525 30.1962 58.3583 30.6295 58.025C31.0628 57.675 31.2795 57.1 31.2795 56.3C31.2795 55.7833 31.0878 55.4 30.7045 55.15C30.3212 54.8833 29.8295 54.75 29.2295 54.75C28.0462 54.75 27.1128 55.1667 26.4295 56C25.7628 56.8333 25.4295 57.8333 25.4295 59C25.4295 60.2333 25.7878 61.2333 26.5045 62C27.2378 62.7667 28.1878 63.15 29.3545 63.15C30.4045 63.15 31.2628 62.8917 31.9295 62.375L33.4295 63.85C32.2795 64.7833 30.9212 65.25 29.3545 65.25C27.4545 65.25 25.9378 64.6917 24.8045 63.575C23.6712 62.4583 23.1045 61.0167 23.1045 59.25C23.1045 57.2833 23.6628 55.6917 24.7795 54.475C25.8962 53.2583 27.4212 52.6833 29.3545 52.75ZM40.4016 65.275C38.9682 63.925 37.9099 62.4333 37.2266 60.8C36.5599 59.1667 35.8932 56.5667 35.2266 53H37.5266C38.1766 57.0167 39.1349 60.0583 40.4016 62.125C41.6682 60.0583 42.6266 57.0167 43.2766 53H45.5766C44.9099 56.5667 44.2349 59.1667 43.5516 60.8C42.8849 62.4333 41.8349 63.925 40.4016 65.275ZM53.5732 52.75C56.4066 52.8667 57.8232 54.0417 57.8232 56.275C57.8232 59.0583 55.9982 60.45 52.3482 60.45H51.3232V58.525H52.5232C53.6399 58.525 54.4149 58.3583 54.8482 58.025C55.2816 57.675 55.4982 57.1 55.4982 56.3C55.4982 55.7833 55.3066 55.4 54.9232 55.15C54.5399 54.8833 54.0482 54.75 53.4482 54.75C52.2649 54.75 51.3316 55.1667 50.6482 56C49.9816 56.8333 49.6482 57.8333 49.6482 59C49.6482 60.2333 50.0066 61.2333 50.7232 62C51.4566 62.7667 52.4066 63.15 53.5732 63.15C54.6232 63.15 55.4816 62.8917 56.1482 62.375L57.6482 63.85C56.4982 64.7833 55.1399 65.25 53.5732 65.25C51.6732 65.25 50.1566 64.6917 49.0232 63.575C47.8899 62.4583 47.3232 61.0167 47.3232 59.25C47.3232 57.2833 47.8816 55.6917 48.9982 54.475C50.1149 53.2583 51.6399 52.6833 53.5732 52.75ZM60.3203 60.25V47.5H62.5703V60.25C62.5703 60.85 62.637 61.3417 62.7703 61.725C62.9203 62.0917 63.1453 62.3583 63.4453 62.525C63.7453 62.675 64.037 62.775 64.3203 62.825C64.6036 62.875 64.9786 62.9 65.4453 62.9V65C63.5786 65 62.2536 64.6417 61.4703 63.925C60.7036 63.2083 60.3203 61.9833 60.3203 60.25ZM68.4336 54.575C69.6003 53.3583 71.0586 52.75 72.8086 52.75C73.6586 52.75 74.4503 52.9167 75.1836 53.25C75.9336 53.5667 76.5836 54.0083 77.1336 54.575C77.7003 55.1417 78.1419 55.8083 78.4586 56.575C78.7753 57.325 78.9336 58.1333 78.9336 59C78.9336 59.8667 78.7753 60.6833 78.4586 61.45C78.1586 62.2 77.7336 62.8583 77.1836 63.425C76.6336 63.9917 75.9836 64.4417 75.2336 64.775C74.4836 65.0917 73.6753 65.25 72.8086 65.25C71.9253 65.25 71.1086 65.0917 70.3586 64.775C69.6253 64.4417 68.9836 63.9917 68.4336 63.425C67.8836 62.8583 67.4503 62.2 67.1336 61.45C66.8336 60.6833 66.6836 59.8667 66.6836 59C66.6836 57.2333 67.2669 55.7583 68.4336 54.575ZM72.8086 54.85C71.6419 54.85 70.7003 55.2333 69.9836 56C69.2836 56.7667 68.9336 57.7667 68.9336 59C68.9336 60.2333 69.2836 61.2333 69.9836 62C70.7003 62.7667 71.6419 63.15 72.8086 63.15C73.9919 63.15 74.9336 62.7667 75.6336 62C76.3336 61.2167 76.6836 60.2167 76.6836 59C76.6836 57.7833 76.3336 56.7917 75.6336 56.025C74.9336 55.2417 73.9919 54.85 72.8086 54.85ZM81.5605 70.7V59C81.5605 58.1333 81.7189 57.3167 82.0355 56.55C82.3522 55.7833 82.7855 55.125 83.3355 54.575C83.8855 54.0083 84.5355 53.5667 85.2855 53.25C86.0355 52.9167 86.8355 52.75 87.6855 52.75C88.5355 52.75 89.3272 52.9167 90.0605 53.25C90.8105 53.5667 91.4605 54.0083 92.0105 54.575C92.5772 55.1417 93.0189 55.8083 93.3355 56.575C93.6522 57.325 93.8105 58.1333 93.8105 59C93.8105 59.8667 93.6522 60.6833 93.3355 61.45C93.0355 62.2 92.6105 62.8583 92.0605 63.425C91.5105 63.9917 90.8605 64.4417 90.1105 64.775C89.3605 65.0917 88.5522 65.25 87.6855 65.25C86.6189 65.25 85.6272 65 84.7105 64.5V62.25C85.5272 62.85 86.4939 63.15 87.6105 63.15C88.2105 63.15 88.7522 63.05 89.2355 62.85C89.7355 62.6333 90.1522 62.3417 90.4855 61.975C90.8355 61.6083 91.1022 61.175 91.2855 60.675C91.4689 60.1583 91.5605 59.6 91.5605 59C91.5605 58.4 91.4689 57.85 91.2855 57.35C91.1022 56.8333 90.8439 56.3917 90.5105 56.025C90.1772 55.6583 89.7689 55.375 89.2855 55.175C88.8189 54.9583 88.2855 54.85 87.6855 54.85C87.1022 54.85 86.5689 54.95 86.0855 55.15C85.6189 55.35 85.2105 55.6333 84.8605 56C84.5272 56.3667 84.2689 56.8083 84.0855 57.325C83.9022 57.825 83.8105 58.3833 83.8105 59V70.7H81.5605ZM102.304 52.75C105.137 52.8667 106.554 54.0417 106.554 56.275C106.554 59.0583 104.729 60.45 101.079 60.45H100.054V58.525H101.254C102.37 58.525 103.145 58.3583 103.579 58.025C104.012 57.675 104.229 57.1 104.229 56.3C104.229 55.7833 104.037 55.4 103.654 55.15C103.27 54.8833 102.779 54.75 102.179 54.75C100.995 54.75 100.062 55.1667 99.3787 56C98.712 56.8333 98.3787 57.8333 98.3787 59C98.3787 60.2333 98.737 61.2333 99.4537 62C100.187 62.7667 101.137 63.15 102.304 63.15C103.354 63.15 104.212 62.8917 104.879 62.375L106.379 63.85C105.229 64.7833 103.87 65.25 102.304 65.25C100.404 65.25 98.887 64.6917 97.7537 63.575C96.6204 62.4583 96.0537 61.0167 96.0537 59.25C96.0537 57.2833 96.612 55.6917 97.7287 54.475C98.8454 53.2583 100.37 52.6833 102.304 52.75ZM108.676 65V58.175C108.676 56.2583 109.034 54.9333 109.751 54.2C110.101 53.8333 110.526 53.5583 111.026 53.375C111.526 53.1917 111.959 53.0833 112.326 53.05C112.709 53.0167 113.226 53 113.876 53H116.076V55.1H113.426C113.092 55.1 112.834 55.1083 112.651 55.125C112.467 55.1417 112.251 55.2 112.001 55.3C111.751 55.4 111.534 55.5583 111.351 55.775C111.034 56.175 110.876 56.975 110.876 58.175V65H108.676ZM126.018 53V55.1H121.593C121.11 55.1 120.693 55.1917 120.343 55.375C119.993 55.5583 119.818 55.8167 119.818 56.15C119.818 56.35 119.86 56.5333 119.943 56.7C120.027 56.85 120.118 56.975 120.218 57.075C120.335 57.175 120.502 57.2833 120.718 57.4C120.952 57.5 121.127 57.575 121.243 57.625C121.377 57.6583 121.91 57.825 122.843 58.125C123.777 58.425 124.468 58.675 124.918 58.875C125.368 59.075 125.71 59.35 125.943 59.7C126.193 60.0333 126.352 60.3667 126.418 60.7C126.485 61.0167 126.518 61.3333 126.518 61.65C126.518 63.8833 124.985 65 121.918 65H117.593V62.9H121.918C123.485 62.9 124.268 62.4833 124.268 61.65C124.268 61.25 124.035 60.9167 123.568 60.65C123.118 60.3833 122.56 60.1583 121.893 59.975C121.243 59.7917 120.585 59.5833 119.918 59.35C119.268 59.1 118.71 58.7083 118.243 58.175C117.793 57.625 117.568 56.95 117.568 56.15C117.568 55.1333 117.96 54.3583 118.743 53.825C119.527 53.275 120.477 53 121.593 53H126.018ZM143.056 62.375L144.556 63.85C143.406 64.7833 142.09 65.25 140.606 65.25C138.756 65.25 137.273 64.6583 136.156 63.475C135.04 62.275 134.481 60.7833 134.481 59C134.481 57.25 135.065 55.775 136.231 54.575C137.415 53.3583 138.873 52.75 140.606 52.75C142.09 52.75 143.406 53.2167 144.556 54.15L143.081 55.65C142.381 55.1167 141.556 54.85 140.606 54.85C139.456 54.85 138.54 55.2333 137.856 56C137.19 56.75 136.856 57.75 136.856 59C136.856 60.25 137.19 61.2583 137.856 62.025C138.54 62.775 139.456 63.15 140.606 63.15C141.573 63.15 142.39 62.8917 143.056 62.375ZM148.873 47.5V53H150.998C152.848 53 154.173 53.275 154.973 53.825C155.69 54.3083 156.14 54.8917 156.323 55.575C156.523 56.2417 156.623 57.125 156.623 58.225V65H154.423V58.25C154.423 57.95 154.415 57.7 154.398 57.5C154.381 57.2833 154.323 57.0167 154.223 56.7C154.123 56.3667 153.981 56.1 153.798 55.9C153.615 55.6833 153.348 55.5 152.998 55.35C152.648 55.1833 152.223 55.1 151.723 55.1H148.873V65H146.673V47.5H148.873ZM160.987 54.575C162.154 53.3583 163.612 52.75 165.362 52.75C166.212 52.75 167.004 52.9167 167.737 53.25C168.487 53.5667 169.137 54.0083 169.687 54.575C170.254 55.1417 170.696 55.8083 171.012 56.575C171.329 57.325 171.487 58.1333 171.487 59C171.487 59.8667 171.329 60.6833 171.012 61.45C170.712 62.2 170.287 62.8583 169.737 63.425C169.187 63.9917 168.537 64.4417 167.787 64.775C167.037 65.0917 166.229 65.25 165.362 65.25C164.479 65.25 163.662 65.0917 162.912 64.775C162.179 64.4417 161.537 63.9917 160.987 63.425C160.437 62.8583 160.004 62.2 159.687 61.45C159.387 60.6833 159.237 59.8667 159.237 59C159.237 57.2333 159.821 55.7583 160.987 54.575ZM165.362 54.85C164.196 54.85 163.254 55.2333 162.537 56C161.837 56.7667 161.487 57.7667 161.487 59C161.487 60.2333 161.837 61.2333 162.537 62C163.254 62.7667 164.196 63.15 165.362 63.15C166.546 63.15 167.487 62.7667 168.187 62C168.887 61.2167 169.237 60.2167 169.237 59C169.237 57.7833 168.887 56.7917 168.187 56.025C167.487 55.2417 166.546 54.85 165.362 54.85ZM177.364 65H175.164V55.1H173.114L174.114 53H177.364V65ZM175.064 50.5C174.848 50.2167 174.739 49.9083 174.739 49.575C174.739 49.2417 174.848 48.9417 175.064 48.675C175.281 48.3917 175.614 48.25 176.064 48.25C176.514 48.25 176.848 48.3917 177.064 48.675C177.281 48.9417 177.389 49.2417 177.389 49.575C177.389 49.9083 177.281 50.2167 177.064 50.5C176.848 50.7667 176.514 50.9 176.064 50.9C175.614 50.9 175.281 50.7667 175.064 50.5ZM188.906 62.375L190.406 63.85C189.256 64.7833 187.939 65.25 186.456 65.25C184.606 65.25 183.123 64.6583 182.006 63.475C180.889 62.275 180.331 60.7833 180.331 59C180.331 57.25 180.914 55.775 182.081 54.575C183.264 53.3583 184.723 52.75 186.456 52.75C187.939 52.75 189.256 53.2167 190.406 54.15L188.931 55.65C188.231 55.1167 187.406 54.85 186.456 54.85C185.306 54.85 184.389 55.2333 183.706 56C183.039 56.75 182.706 57.75 182.706 59C182.706 60.25 183.039 61.2583 183.706 62.025C184.389 62.775 185.306 63.15 186.456 63.15C187.423 63.15 188.239 62.8917 188.906 62.375ZM198.397 52.75C201.231 52.8667 202.647 54.0417 202.647 56.275C202.647 59.0583 200.822 60.45 197.172 60.45H196.147V58.525H197.347C198.464 58.525 199.239 58.3583 199.672 58.025C200.106 57.675 200.322 57.1 200.322 56.3C200.322 55.7833 200.131 55.4 199.747 55.15C199.364 54.8833 198.872 54.75 198.272 54.75C197.089 54.75 196.156 55.1667 195.472 56C194.806 56.8333 194.472 57.8333 194.472 59C194.472 60.2333 194.831 61.2333 195.547 62C196.281 62.7667 197.231 63.15 198.397 63.15C199.447 63.15 200.306 62.8917 200.972 62.375L202.472 63.85C201.322 64.7833 199.964 65.25 198.397 65.25C196.497 65.25 194.981 64.6917 193.847 63.575C192.714 62.4583 192.147 61.0167 192.147 59.25C192.147 57.2833 192.706 55.6917 193.822 54.475C194.939 53.2583 196.464 52.6833 198.397 52.75Z" fill="#2F323A"/>
</g>
<defs>
<filter id="filter0_i" x="0.523438" y="0" width="210.209" height="74.7" filterUnits="userSpaceOnUse" color-interpolation-filters="sRGB">
<feFlood flood-opacity="0" result="BackgroundImageFix"/>
<feBlend mode="normal" in="SourceGraphic" in2="BackgroundImageFix" result="shape"/>
<feColorMatrix in="SourceAlpha" type="matrix" values="0 0 0 0 0 0 0 0 0 0 0 0 0 0 0 0 0 0 127 0" result="hardAlpha"/>
<feOffset dy="4"/>
<feGaussianBlur stdDeviation="2"/>
<feComposite in2="hardAlpha" operator="arithmetic" k2="-1" k3="1"/>
<feColorMatrix type="matrix" values="0 0 0 0 0 0 0 0 0 0 0 0 0 0 0 0 0 0 0.25 0"/>
<feBlend mode="normal" in2="shape" result="effect1_innerShadow"/>
</filter>
</defs>
</svg>
