<svg width="70" height="70" viewBox="0 0 70 70" fill="none" xmlns="http://www.w3.org/2000/svg">
<circle cx="35" cy="36.5" r="24.5" stroke="black" stroke-width="3"/>
<path d="M20 56.5L15 62.5" stroke="black" stroke-width="3" stroke-linecap="round"/>
<path d="M24 37.1875L31.7917 44.5L46 30M6 19.5C7.66667 16.5 11.5 10.8 17.5 8" stroke="black" stroke-width="3" stroke-linecap="round"/>
<path d="M52.5 8C55.3333 8.83333 60.5 13 64 19.5" stroke="black" stroke-width="3" stroke-linecap="round"/>
<path d="M51.6609 56.0501L50.7111 54.8892L48.3892 56.7889L49.3391 57.9499L51.6609 56.0501ZM53.8391 63.4499C54.3637 64.091 55.3087 64.1855 55.9499 63.6609C56.591 63.1363 56.6855 62.1913 56.1609 61.5501L53.8391 63.4499ZM49.3391 57.9499L53.8391 63.4499L56.1609 61.5501L51.6609 56.0501L49.3391 57.9499Z" fill="black"/>
</svg>
