<svg width="122" height="100" viewBox="0 0 122 100" fill="none" xmlns="http://www.w3.org/2000/svg">
<line y1="26.7246" x2="122" y2="26.7246" stroke="#202020" stroke-width="2"/>
<rect x="1" y="1" width="120" height="98" rx="9" stroke="#202020" stroke-width="2"/>
<path d="M45.294 67.334L38.43 61.25L45.294 55.14H46.776L39.912 61.25L46.776 67.334H45.294ZM65.1998 46.638L57.9978 75.186H56.8278L64.0038 46.638H65.1998ZM75.1219 55.14H76.6039L83.4679 61.25L76.6039 67.334H75.1219L81.9859 61.25L75.1219 55.14Z" fill="#202020"/>
<path d="M45.294 67.334L44.9623 67.7082L45.1043 67.834H45.294V67.334ZM38.43 61.25L38.0976 60.8765L37.6771 61.2508L38.0983 61.6242L38.43 61.25ZM45.294 55.14V54.64H45.1037L44.9616 54.7665L45.294 55.14ZM46.776 55.14L47.1084 55.5135L48.0897 54.64H46.776V55.14ZM39.912 61.25L39.5796 60.8765L39.1591 61.2508L39.5803 61.6242L39.912 61.25ZM46.776 67.334V67.834H48.0939L47.1077 66.9598L46.776 67.334ZM45.6257 66.9598L38.7617 60.8758L38.0983 61.6242L44.9623 67.7082L45.6257 66.9598ZM38.7624 61.6235L45.6264 55.5135L44.9616 54.7665L38.0976 60.8765L38.7624 61.6235ZM45.294 55.64H46.776V54.64H45.294V55.64ZM46.4436 54.7665L39.5796 60.8765L40.2444 61.6235L47.1084 55.5135L46.4436 54.7665ZM39.5803 61.6242L46.4443 67.7082L47.1077 66.9598L40.2437 60.8758L39.5803 61.6242ZM46.776 66.834H45.294V67.834H46.776V66.834ZM65.1998 46.638L65.6847 46.7603L65.8416 46.138H65.1998V46.638ZM57.9978 75.186V75.686H58.3874L58.4827 75.3083L57.9978 75.186ZM56.8278 75.186L56.3429 75.0641L56.1866 75.686H56.8278V75.186ZM64.0038 46.638V46.138H63.614L63.5189 46.5161L64.0038 46.638ZM64.715 46.5157L57.513 75.0637L58.4827 75.3083L65.6847 46.7603L64.715 46.5157ZM57.9978 74.686H56.8278V75.686H57.9978V74.686ZM57.3128 75.3079L64.4888 46.7599L63.5189 46.5161L56.3429 75.0641L57.3128 75.3079ZM64.0038 47.138H65.1998V46.138H64.0038V47.138ZM75.1219 55.14V54.64H73.8082L74.7894 55.5135L75.1219 55.14ZM76.6039 55.14L76.9363 54.7665L76.7942 54.64H76.6039V55.14ZM83.4679 61.25L83.7995 61.6242L84.2208 61.2508L83.8003 60.8765L83.4679 61.25ZM76.6039 67.334V67.834H76.7936L76.9355 67.7082L76.6039 67.334ZM75.1219 67.334L74.7902 66.9598L73.804 67.834H75.1219V67.334ZM81.9859 61.25L82.3175 61.6242L82.7388 61.2508L82.3183 60.8765L81.9859 61.25ZM75.1219 55.64H76.6039V54.64H75.1219V55.64ZM76.2714 55.5135L83.1354 61.6235L83.8003 60.8765L76.9363 54.7665L76.2714 55.5135ZM83.1362 60.8758L76.2722 66.9598L76.9355 67.7082L83.7995 61.6242L83.1362 60.8758ZM76.6039 66.834H75.1219V67.834H76.6039V66.834ZM75.4535 67.7082L82.3175 61.6242L81.6542 60.8758L74.7902 66.9598L75.4535 67.7082ZM82.3183 60.8765L75.4543 54.7665L74.7894 55.5135L81.6534 61.6235L82.3183 60.8765Z" fill="#202020"/>
<path d="M17.3458 14.6211C17.3458 17.367 15.0781 19.6211 12.2458 19.6211C9.41345 19.6211 7.14575 17.367 7.14575 14.6211C7.14575 11.8752 9.41345 9.62109 12.2458 9.62109C15.0781 9.62109 17.3458 11.8752 17.3458 14.6211Z" stroke="#202020" stroke-width="2"/>
<path d="M32.596 14.6211C32.596 17.367 30.3283 19.6211 27.496 19.6211C24.6637 19.6211 22.396 17.367 22.396 14.6211C22.396 11.8752 24.6637 9.62109 27.496 9.62109C30.3283 9.62109 32.596 11.8752 32.596 14.6211Z" stroke="#202020" stroke-width="2"/>
<path d="M47.8458 14.6211C47.8458 17.367 45.5781 19.6211 42.7458 19.6211C39.9135 19.6211 37.6458 17.367 37.6458 14.6211C37.6458 11.8752 39.9135 9.62109 42.7458 9.62109C45.5781 9.62109 47.8458 11.8752 47.8458 14.6211Z" stroke="#202020" stroke-width="2"/>
</svg>
