<svg width="49" height="82" viewBox="0 0 49 82" fill="none" xmlns="http://www.w3.org/2000/svg">
<path d="M41.0938 0.28125V7C30.4688 13.4583 23.2292 19.4479 19.375 24.9688C16.5625 29.0312 15.1562 33.8229 15.1562 39.3438C15.1562 42.6771 15.7812 45.125 17.0312 46.6875C18.1771 48.25 19.5312 49.0312 21.0938 49.0312C22.1354 49.0312 23.5938 48.6667 25.4688 47.9375C28.2812 47 30.5729 46.5312 32.3438 46.5312C36.5104 46.5312 40.2083 48.0938 43.4375 51.2188C46.6667 54.3438 48.2812 58.25 48.2812 62.9375C48.2812 68.25 46.6667 72.3646 43.4375 75.2812C38.9583 79.2396 33.75 81.2188 27.8125 81.2188C20.7292 81.2188 14.4271 78.25 8.90625 72.3125C3.38542 66.375 0.625 59.0312 0.625 50.2812C0.625 37.9896 5.20833 26.7917 14.375 16.6875C20.5208 10.0208 29.4271 4.55208 41.0938 0.28125Z" fill="#E7E7E8"/>
</svg>
