<svg width="102" height="18" viewBox="0 0 102 18" fill="none" xmlns="http://www.w3.org/2000/svg">
<path d="M8.43908 14.4798L9.87908 15.8958C8.77508 16.7918 7.51108 17.2398 6.08708 17.2398C4.31108 17.2398 2.88708 16.6718 1.81508 15.5358C0.743075 14.3838 0.207075 12.9518 0.207075 11.2398C0.207075 9.55976 0.767075 8.14376 1.88708 6.99176C3.02308 5.82376 4.42308 5.23976 6.08708 5.23976C7.51108 5.23976 8.77508 5.68776 9.87908 6.58376L8.46308 8.02376C7.79108 7.51176 6.99908 7.25576 6.08708 7.25576C4.98308 7.25576 4.10308 7.62376 3.44708 8.35976C2.80708 9.07976 2.48708 10.0398 2.48708 11.2398C2.48708 12.4398 2.80708 13.4078 3.44708 14.1438C4.10308 14.8638 4.98308 15.2238 6.08708 15.2238C7.01508 15.2238 7.79908 14.9758 8.43908 14.4798ZM11.5508 16.9998V10.4478C11.5508 8.60776 11.8948 7.33576 12.5828 6.63176C12.9188 6.27976 13.3268 6.01576 13.8068 5.83976C14.2868 5.66376 14.7028 5.55976 15.0548 5.52776C15.4228 5.49576 15.9188 5.47976 16.5428 5.47976H18.6548V7.49576H16.1108C15.7908 7.49576 15.5428 7.50376 15.3668 7.51976C15.1908 7.53576 14.9828 7.59176 14.7428 7.68776C14.5028 7.78376 14.2948 7.93576 14.1188 8.14376C13.8148 8.52776 13.6628 9.29576 13.6628 10.4478V16.9998H11.5508ZM19.0077 7.49576L23.3037 3.19975V5.47976H26.5437V7.49576H23.3037V12.4398C23.3037 12.9998 23.3917 13.4638 23.5677 13.8318C23.7597 14.1998 24.0317 14.4638 24.3837 14.6238C24.7357 14.7678 25.0637 14.8638 25.3677 14.9118C25.6877 14.9598 26.0797 14.9838 26.5437 14.9838V16.9998C24.7037 16.9998 23.3437 16.6478 22.4637 15.9438C21.5837 15.2398 21.1437 14.0718 21.1437 12.4398V7.49576H19.0077ZM32.9607 17.2638C31.5847 15.9678 30.5687 14.5358 29.9127 12.9678C29.2727 11.3998 28.6327 8.90376 27.9927 5.47976H30.2007C30.8247 9.33576 31.7447 12.2558 32.9607 14.2398C34.1767 12.2558 35.0967 9.33576 35.7207 5.47976H37.9287C37.2887 8.90376 36.6407 11.3998 35.9847 12.9678C35.3447 14.5358 34.3367 15.9678 32.9607 17.2638ZM45.6055 5.23976C48.3255 5.35176 49.6855 6.47976 49.6855 8.62376C49.6855 11.2958 47.9335 12.6318 44.4295 12.6318H43.4455V10.7838H44.5975C45.6695 10.7838 46.4135 10.6238 46.8295 10.3038C47.2455 9.96776 47.4535 9.41576 47.4535 8.64776C47.4535 8.15176 47.2695 7.78376 46.9015 7.54376C46.5335 7.28776 46.0615 7.15976 45.4855 7.15976C44.3495 7.15976 43.4535 7.55976 42.7975 8.35976C42.1575 9.15976 41.8375 10.1198 41.8375 11.2398C41.8375 12.4238 42.1815 13.3838 42.8695 14.1198C43.5735 14.8558 44.4855 15.2238 45.6055 15.2238C46.6135 15.2238 47.4375 14.9758 48.0775 14.4798L49.5175 15.8958C48.4135 16.7918 47.1095 17.2398 45.6055 17.2398C43.7815 17.2398 42.3255 16.7038 41.2375 15.6318C40.1495 14.5598 39.6055 13.1758 39.6055 11.4798C39.6055 9.59176 40.1415 8.06376 41.2135 6.89576C42.2855 5.72776 43.7495 5.17576 45.6055 5.23976ZM59.9547 14.4798L61.3947 15.8958C60.2907 16.7918 59.0267 17.2398 57.6027 17.2398C55.8267 17.2398 54.4027 16.6718 53.3307 15.5358C52.2587 14.3838 51.7227 12.9518 51.7227 11.2398C51.7227 9.55976 52.2827 8.14376 53.4027 6.99176C54.5387 5.82376 55.9387 5.23976 57.6027 5.23976C59.0267 5.23976 60.2907 5.68776 61.3947 6.58376L59.9787 8.02376C59.3067 7.51176 58.5147 7.25576 57.6027 7.25576C56.4987 7.25576 55.6187 7.62376 54.9627 8.35976C54.3227 9.07976 54.0027 10.0398 54.0027 11.2398C54.0027 12.4398 54.3227 13.4078 54.9627 14.1438C55.6187 14.8638 56.4987 15.2238 57.6027 15.2238C58.5307 15.2238 59.3147 14.9758 59.9547 14.4798ZM64.7465 6.99176C65.8665 5.82376 67.2665 5.23976 68.9465 5.23976C69.7625 5.23976 70.5225 5.39976 71.2265 5.71976C71.9465 6.02376 72.5705 6.44776 73.0985 6.99176C73.6425 7.53576 74.0665 8.17576 74.3705 8.91176C74.6745 9.63176 74.8265 10.4078 74.8265 11.2398C74.8265 12.0718 74.6745 12.8558 74.3705 13.5918C74.0825 14.3118 73.6745 14.9438 73.1465 15.4878C72.6185 16.0318 71.9945 16.4638 71.2745 16.7838C70.5545 17.0878 69.7785 17.2398 68.9465 17.2398C68.0985 17.2398 67.3145 17.0878 66.5945 16.7838C65.8905 16.4638 65.2745 16.0318 64.7465 15.4878C64.2185 14.9438 63.8025 14.3118 63.4985 13.5918C63.2105 12.8558 63.0665 12.0718 63.0665 11.2398C63.0665 9.54376 63.6265 8.12776 64.7465 6.99176ZM68.9465 7.25576C67.8265 7.25576 66.9225 7.62376 66.2345 8.35976C65.5625 9.09576 65.2265 10.0558 65.2265 11.2398C65.2265 12.4238 65.5625 13.3838 66.2345 14.1198C66.9225 14.8558 67.8265 15.2238 68.9465 15.2238C70.0825 15.2238 70.9865 14.8558 71.6585 14.1198C72.3305 13.3678 72.6665 12.4078 72.6665 11.2398C72.6665 10.0718 72.3305 9.11976 71.6585 8.38376C70.9865 7.63176 70.0825 7.25576 68.9465 7.25576ZM86.3483 0.199755H88.5083V16.9998H82.8683C81.1243 16.9998 79.7083 16.4478 78.6203 15.3438C77.5323 14.2238 76.9883 12.8158 76.9883 11.1198C76.9883 9.45576 77.5483 8.06376 78.6683 6.94376C79.8043 5.80776 81.1483 5.23976 82.7003 5.23976C83.6923 5.23976 84.6203 5.47976 85.4843 5.95976V8.11976C84.6843 7.54376 83.7563 7.25576 82.7003 7.25576C81.7403 7.25576 80.9243 7.61576 80.2523 8.33576C79.5963 9.03976 79.2683 9.96776 79.2683 11.1198C79.2683 12.2878 79.5803 13.2238 80.2043 13.9278C80.8443 14.6318 81.7323 14.9838 82.8683 14.9838H86.3483V0.199755ZM97.0274 5.23976C99.7474 5.35176 101.107 6.47976 101.107 8.62376C101.107 11.2958 99.3554 12.6318 95.8514 12.6318H94.8674V10.7838H96.0194C97.0914 10.7838 97.8354 10.6238 98.2514 10.3038C98.6674 9.96776 98.8754 9.41576 98.8754 8.64776C98.8754 8.15176 98.6914 7.78376 98.3234 7.54376C97.9554 7.28776 97.4834 7.15976 96.9074 7.15976C95.7714 7.15976 94.8754 7.55976 94.2194 8.35976C93.5794 9.15976 93.2594 10.1198 93.2594 11.2398C93.2594 12.4238 93.6034 13.3838 94.2914 14.1198C94.9954 14.8558 95.9074 15.2238 97.0274 15.2238C98.0354 15.2238 98.8594 14.9758 99.4994 14.4798L100.939 15.8958C99.8354 16.7918 98.5314 17.2398 97.0274 17.2398C95.2034 17.2398 93.7474 16.7038 92.6594 15.6318C91.5714 14.5598 91.0274 13.1758 91.0274 11.4798C91.0274 9.59176 91.5634 8.06376 92.6354 6.89576C93.7074 5.72776 95.1714 5.17576 97.0274 5.23976Z" fill="#2292A4"/>
</svg>
