<svg width="27" height="26" viewBox="0 0 27 26" fill="none" xmlns="http://www.w3.org/2000/svg">
<path d="M20.6923 22.7498H5.50147C4.92592 22.7498 4.37395 22.5215 3.96697 22.1152C3.56 21.7088 3.33136 21.1577 3.33136 20.5831V5.41642C3.33136 4.84179 3.56 4.29069 3.96697 3.88436C4.37395 3.47803 4.92592 3.24976 5.50147 3.24976H20.6923C21.2678 3.24976 21.8198 3.47803 22.2268 3.88436C22.6337 4.29069 22.8624 4.84179 22.8624 5.41642V20.5831C22.8624 21.1577 22.6337 21.7088 22.2268 22.1152C21.8198 22.5215 21.2678 22.7498 20.6923 22.7498ZM5.50147 5.41642V20.5831H20.6923V5.41642H5.50147Z" fill="#606060"/>
<rect x="1.07778" y="0.999756" width="24.0382" height="24" rx="2" fill="#2292A4"/>
<path d="M16.737 16.4798L18.177 17.8958C17.073 18.7918 15.809 19.2398 14.385 19.2398C12.609 19.2398 11.185 18.6718 10.113 17.5358C9.04099 16.3838 8.50499 14.9518 8.50499 13.2398C8.50499 11.5598 9.06499 10.1438 10.185 8.99176C11.321 7.82376 12.721 7.23976 14.385 7.23976C15.809 7.23976 17.073 7.68776 18.177 8.58376L16.761 10.0238C16.089 9.51176 15.297 9.25576 14.385 9.25576C13.281 9.25576 12.401 9.62376 11.745 10.3598C11.105 11.0798 10.785 12.0398 10.785 13.2398C10.785 14.4398 11.105 15.4078 11.745 16.1438C12.401 16.8638 13.281 17.2238 14.385 17.2238C15.313 17.2238 16.097 16.9758 16.737 16.4798Z" fill="white"/>
</svg>
